<mxfile host="app.diagrams.net" agent="Mozilla/5.0 (Windows NT 10.0; Win64; x64) AppleWebKit/537.36 (KHTML, like Gecko) Chrome/130.0.0.0 Safari/537.36" version="24.8.0">
  <diagram name="Página-1" id="fdw4B5Y9ms-QeOjKma-K">
    <mxGraphModel dx="1434" dy="1915" grid="1" gridSize="10" guides="1" tooltips="1" connect="1" arrows="1" fold="1" page="1" pageScale="1" pageWidth="827" pageHeight="1169" math="0" shadow="0">
      <root>
        <mxCell id="0" />
        <mxCell id="1" parent="0" />
        <mxCell id="l5-ghi2Y1wSbYCUDwveU-1" value="Diagrama de sequência do caso de uso Armazenar pedidos realizados pelo cliente" style="text;html=1;align=center;verticalAlign=middle;whiteSpace=wrap;rounded=0;" vertex="1" parent="1">
          <mxGeometry x="248" y="-1120" width="331" height="30" as="geometry" />
        </mxCell>
        <mxCell id="l5-ghi2Y1wSbYCUDwveU-2" value="Vendedor" style="shape=umlActor;verticalLabelPosition=bottom;verticalAlign=top;html=1;outlineConnect=0;" vertex="1" parent="1">
          <mxGeometry x="90" y="-1020" width="30" height="60" as="geometry" />
        </mxCell>
        <mxCell id="l5-ghi2Y1wSbYCUDwveU-3" value="Sistema" style="rounded=0;whiteSpace=wrap;html=1;" vertex="1" parent="1">
          <mxGeometry x="364" y="-980" width="100" height="30" as="geometry" />
        </mxCell>
        <mxCell id="l5-ghi2Y1wSbYCUDwveU-4" value="" style="endArrow=none;dashed=1;html=1;dashPattern=1 3;strokeWidth=2;rounded=0;entryX=0.5;entryY=0.5;entryDx=0;entryDy=0;entryPerimeter=0;" edge="1" parent="1">
          <mxGeometry width="50" height="50" relative="1" as="geometry">
            <mxPoint x="105" as="sourcePoint" />
            <mxPoint x="104.5" y="-940" as="targetPoint" />
          </mxGeometry>
        </mxCell>
        <mxCell id="l5-ghi2Y1wSbYCUDwveU-5" value="" style="endArrow=none;dashed=1;html=1;dashPattern=1 3;strokeWidth=2;rounded=0;entryX=0.5;entryY=0.5;entryDx=0;entryDy=0;entryPerimeter=0;" edge="1" parent="1">
          <mxGeometry width="50" height="50" relative="1" as="geometry">
            <mxPoint x="414" y="30" as="sourcePoint" />
            <mxPoint x="414" y="-950" as="targetPoint" />
          </mxGeometry>
        </mxCell>
        <mxCell id="l5-ghi2Y1wSbYCUDwveU-6" value="" style="html=1;points=[[0,0,0,0,5],[0,1,0,0,-5],[1,0,0,0,5],[1,1,0,0,-5]];perimeter=orthogonalPerimeter;outlineConnect=0;targetShapes=umlLifeline;portConstraint=eastwest;newEdgeStyle={&quot;curved&quot;:0,&quot;rounded&quot;:0};" vertex="1" parent="1">
          <mxGeometry x="404" y="-770" width="10" height="80" as="geometry" />
        </mxCell>
        <mxCell id="l5-ghi2Y1wSbYCUDwveU-7" value="Mensagem informando que a operação foi bem sucedida" style="html=1;verticalAlign=bottom;endArrow=open;dashed=1;endSize=8;curved=0;rounded=0;exitX=0;exitY=1;exitDx=0;exitDy=-5;" edge="1" parent="1" source="l5-ghi2Y1wSbYCUDwveU-6">
          <mxGeometry relative="1" as="geometry">
            <mxPoint x="100" y="-695" as="targetPoint" />
          </mxGeometry>
        </mxCell>
        <mxCell id="l5-ghi2Y1wSbYCUDwveU-8" value="Entrar dados (nome do cliente, data do pedido, endereço)" style="html=1;verticalAlign=bottom;endArrow=block;curved=0;rounded=0;entryX=0;entryY=0;entryDx=0;entryDy=5;" edge="1" parent="1">
          <mxGeometry relative="1" as="geometry">
            <mxPoint x="100" y="-765" as="sourcePoint" />
            <mxPoint x="404" y="-765" as="targetPoint" />
          </mxGeometry>
        </mxCell>
        <mxCell id="l5-ghi2Y1wSbYCUDwveU-9" value="" style="html=1;points=[[0,0,0,0,5],[0,1,0,0,-5],[1,0,0,0,5],[1,1,0,0,-5]];perimeter=orthogonalPerimeter;outlineConnect=0;targetShapes=umlLifeline;portConstraint=eastwest;newEdgeStyle={&quot;curved&quot;:0,&quot;rounded&quot;:0};" vertex="1" parent="1">
          <mxGeometry x="404" y="-920" width="10" height="80" as="geometry" />
        </mxCell>
        <mxCell id="l5-ghi2Y1wSbYCUDwveU-10" value="Tela de armazenamento de pedidos" style="html=1;verticalAlign=bottom;endArrow=open;dashed=1;endSize=8;curved=0;rounded=0;exitX=0;exitY=1;exitDx=0;exitDy=-5;" edge="1" parent="1" source="l5-ghi2Y1wSbYCUDwveU-9">
          <mxGeometry relative="1" as="geometry">
            <mxPoint x="100" y="-845" as="targetPoint" />
          </mxGeometry>
        </mxCell>
        <mxCell id="l5-ghi2Y1wSbYCUDwveU-11" value="Inclui &quot;dss_login&quot;" style="html=1;verticalAlign=bottom;endArrow=block;curved=0;rounded=0;entryX=0;entryY=0;entryDx=0;entryDy=5;" edge="1" parent="1">
          <mxGeometry relative="1" as="geometry">
            <mxPoint x="100" y="-910" as="sourcePoint" />
            <mxPoint x="404" y="-910" as="targetPoint" />
          </mxGeometry>
        </mxCell>
      </root>
    </mxGraphModel>
  </diagram>
</mxfile>
